<svg xmlns="http://www.w3.org/2000/svg" width="300" height="397.334" version="1.0" viewBox="0 0 300 446"><style>@keyframes dash{to{stroke-dashoffset:0}}@keyframes dash-eye{to{stroke-dashoffset:0}}</style><g xmlns="http://www.w3.org/2000/svg" stroke="#fff" stroke-width="10" style="stroke-dasharray:10000;stroke-dashoffset:10000;animation:dash 15s linear forwards"><path stroke-width="1" d="M105.5 2.2C93.7 10.6 81.6 28 77.4 42.7c-1.4 5.1-2.9 7.1-11.3 15.8C44.6 80.8 39.5 91.2 43 106.1c1.4 6.1 7.9 23.5 12.1 32.4 7.1 15.3 12.9 27.8 12.9 28.1 0 .2-.9.4-2 .4s-2 .5-2 1.1c0 .7 1 .9 2.5.6 2.4-.4 2.9.3 6.5 7.7 2.2 4.4 4.8 9.2 5.9 10.6 3.4 4.3 3.6 0 .3-7.8-2.8-6.6-2.8-7.1-1.1-7.5 2.8-.8 2.3-2.3-.8-2.2-4.2 0-3.6-1.8 1.5-4.6l4.7-2.6 2.2 5.6c3.1 8.1 3.6 13 1.8 16.5-2 3.9-1.8 4.6.5 1.7 1.1-1.3 2-3.4 2-4.7 0-2.9 1.2-3.6 4.5-2.8 2.4.6 2.5.9 2.5 8.5 0 12.1 4.8 34.6 8.7 40.5 2.2 3.5 6.6 4.7 14.2 4.1 13-1.1 31.7-8.4 28.8-11.3-.2-.3-6.7.4-14.3 1.6-17.6 2.5-22.8 2.6-25.2.2-2.6-2.6-6.5-21.7-6.6-32.7-.1-12.2 1.2-14.6 9.6-17.4 10.4-3.4 27.6-6.3 40.4-6.8l12.1-.6.6 3.9c.4 2.2.7 9.3.7 15.9 0 10.6.9 16 2.3 14.5 1.1-1.1 2.7-19.2 2.1-23-.5-3.2-.4-4 .9-4 .9 0 1.9 1 2.3 2.2 1.3 4.3 7.8 17.4 10.5 21.4 1.5 2.2 5.7 5.9 9.3 8.2 6.7 4.4 11.6 9.4 9.7 10-.6.2-1.1.9-1.1 1.7 0 .7-2.1 2.2-4.7 3.3l-4.8 2 3.5.1c2 .1 4.5-.6 5.7-1.4 1.4-1 3.2-1.3 4.8-.9 2.7.7 3.6-1 1-2-.8-.3-1.5-1.8-1.5-3.2 0-3.6-7.6-10.9-12.7-12.3-5.4-1.5-9.3-8.5-9.3-16.7.1-11.3 1.6-18.5 4.8-21.6 3.5-3.6 13.2-6.3 28.5-8 9-.9 11-.9 11.7.2.6 1 1.2 1.1 2.2.3.7-.5 2.4-.7 3.8-.3 2.4.6 2.5 1 2.5 7.5 0 12.6-2.9 31.7-5.9 38.9-1.6 4-5.1 6.6-8.6 6.6-4.3 0-10 2-10 3.5 0 2.2 3.4 3.5 9 3.5 6.9 0 10.8-2.2 13-7.3 2.2-5 6.9-28.7 7.1-35.5.2-6.5 1.2-11 2.2-9.5 1.6 2.5 2.7 1.2 2.7-3.1 0-5.9-.8-7.6-3.4-7.6-1.1 0-3.2-1.2-4.5-2.5-1.3-1.4-3-2.5-3.8-2.5-2.3 0-3.7-2.1-6.2-9.8l-2.4-7.2 2.2-12.8C235.2 80.7 236 75 236 66c0-7.9-.4-10.4-2.4-14.6-2.5-5.3-8.2-10.7-15.1-14.2-5.1-2.5-14.5-5.3-15.6-4.6-1.9 1.1-.7 2.2 4.9 4.3 9.3 3.4 17.6 9.2 20.9 14.8 2.6 4.4 2.8 5.6 2.7 14.3-.1 5.2-.9 14.4-1.9 20.5-1 6-2.5 16.1-3.4 22.3-1.5 10.4-3.1 13.9-3.1 7 0-1.5-.4-2.8-.9-2.8-.4 0-1.1-3.7-1.5-8.3-.4-4.5-.9-9.8-1.2-11.8-.6-3.5-.5-3.7 2.9-4.3 1.9-.4 4.1-1.4 4.8-2.3 1.3-1.5 1.1-1.6-1.6-1-1.6.4-3.9.9-5.1 1.2-1.7.5-2.2 0-3.3-3.7-.7-2.4-1.5-5.1-1.7-6.1-.5-1.5-.2-1.6 2.1-.7 3.9 1.5 9.1 1.2 10.5-.5 1.1-1.3.5-1.5-4.4-1.5-3.2 0-6.6-.5-7.6-1-1.1-.6-3.8-4.7-6.2-9.2-4.2-8.2-14-19.9-15.4-18.6-.4.5 1.1 3 3.3 5.6 5.4 6.3 8.3 11.2 8.3 13.8 0 1.2 1.1 3.7 2.3 5.6 2.1 3 6.7 14.8 6.7 17 0 .4-.7.5-1.5.2-1-.4-1.3-1.3-1-2.5.5-1.4.2-1.7-1-1.3-2.3.9-1.5 4.7 1.2 5.9 3 1.3 3 1.4 4.4 16.2.8 8.7 1.7 13.2 2.7 14 .7.6 1.1 2 .8 3-.3 1 0 2.8.7 4 .7 1.2 1.1 4.7.9 8l-.4 5.8-8.2.2c-4.6.2-9.4.7-10.7 1.3-1.8.7 0 .9 6.6.4 7.4-.4 10-.2 14.5 1.5 4.8 1.7 5.1 2 2.5 2.1-1.6 0-6.1.3-9.9.6-5 .4-6.6.3-6.1-.5s-.1-1-1.8-.6c-2.1.6-7.8-.4-12.3-2.2-.8-.3-1.4-.1-1.4.5 0 .5 1.2 1.3 2.8 1.7 1.5.4 2.2.9 1.5 1.2-.6.2-3.4-.7-6.2-2.2-2.8-1.4-5.1-2.1-5.1-1.5 0 .5-.7.7-1.5.4-2.8-1.1-1.5 1.1 2.1 3.4 2.9 1.9 5.2 2.4 13.2 2.7 13.3.5 13.2.5 13.2 1.6 0 .5-.8 1-1.7 1-4.1.3-6.3.8-15 3.3-5.1 1.4-9.5 2.6-10 2.6-.4 0 1-1.5 3.2-3.4s3.7-3.8 3.3-4.1c-.3-.4-2.7.2-5.2 1.3-4.7 2.1-8.6 7-8.6 10.7 0 1.7-.6 2.1-3.2 2.1-1.8 0-4.5.3-5.9.7-2.2.6-2.7.2-3.8-2.8-1.5-4.4-5.5-6.5-13.1-7.2l-5.7-.5 4.3-4c4.1-3.8 7.1-9.3 5.6-10.2-.5-.3-2 1.5-3.5 3.9-4.3 6.8-11.1 11.1-18.8 12-9.4 1.1-29.9 6.3-33.7 8.5-3.8 2.3-4.6 2.5-3.6.9 1-1.6 21.3-11.1 30.9-14.5 8.7-3 9.1-3.2 8.3-3.9-1-1-14.3 3.7-23.8 8.3-5.2 2.6-9.8 4.8-10.2 5-1.1.5-1-5.9.3-11.8 1.4-6.6.7-8.4-1.6-4-1.3 2.4-1.9 5.7-1.9 10.5 0 6.9-.1 7.1-3.4 9.3-1.8 1.2-4.4 2.5-5.6 2.8-2.2.5-2.5-.3-7.4-16.8-8.5-28.9-8.5-29.3-2.1-43.4 5.8-12.8 25.4-47.7 29.1-52l1.9-2.1 3.3 3.3c3.5 3.5 10.8 6.1 19.1 6.8 2.8.2 8.6.8 13 1.1 13.4 1.2 23.6-2.7 35-13.5 3.3-3.2 6.6-5.6 7.3-5.4.7.1.8 0 .2-.3-.7-.3-.6-1.1.1-2.4 2.4-4.6-.2-3.6-9.4 3.5-9.6 7.4-15.6 10.9-21.6 12.6-3.8 1.1-3.8.9-.5-2.7 5-5.4 8.6-14 9.1-22.2.7-10-.9-15.5-5.7-20.3-4-4-8-4.9-12.1-2.8-3.2 1.8-2.1 2.8 2.6 2.3 3.9-.5 4.7-.2 7.4 2.4 7.9 8 6.2 28.3-3.5 41-2.3 3-3 3.3-7.7 3.3-2.9 0-8.3-.7-12.2-1.6-7.5-1.6-15.7-3.2-19.2-3.7-1.1-.2-2.8-.9-3.6-1.5-1-.9-1.7-1-2.2-.2-.3.5-1.4 1-2.3 1-5.1 0-36.1 53.2-37.7 64.7-.5 3.6-.1 7.5 1.5 13.9 1.8 7.9 5.7 21 7.5 25.6.5 1.2-.5 2.3-3.8 4.2-2.4 1.4-4.8 2.6-5.3 2.6s-3.1-4.6-5.6-10.3c-6.5-14.3-6.3-13.4-3.4-14.1 3.1-.8 7.4-6.8 8.1-11.6.5-3 .4-3.2-.5-1.1-1.7 3.8-4.9 7.9-8 10.1l-2.9 2.1-1.6-3.8c-.9-2.2-1.2-3.9-.6-4.1.5-.2 2.7-1.6 4.9-3.1 4.4-3.3 7.5-8.9 6.9-12.9-.4-2.6-.4-2.6-1.2.8-.9 3.8-9.8 13.4-11.8 12.7-1.5-.5-8.2-17.4-9.8-24.6-1.5-7.1-.8-12.8 2.4-19.3 3.1-6.3 14.2-20.4 26.4-33.5 4.8-5.2 9-9.9 9.1-10.4.6-1.6-1.1-1-3.5 1.3-4.8 4.5-2.1-.6 3.4-6.3 5.9-6.2 16.5-13.5 24.1-16.5 5.8-2.3 4.6-3-1.7-.9s-15.4 8-20.8 13.6C84.9 35.4 83 37 83 36.4c0-1.7 7.9-14.5 12.9-20.8 7.6-9.6 10.8-12 18.1-13.8l6.5-1.6-6-.1c-4.6 0-6.7.5-9 2.1zm122.4 139.5c.1.7-.6 1-1.4.7-1.6-.6-2.1-4.5-.8-5.8.7-.7 2 2.2 2.2 5.1zm5.4 7.4 2.1 1.2-2.1.8c-2.4.9-10.3 0-10.3-1.2 0-.7 2.6-1.5 6.3-1.8 1 0 2.8.4 4 1zm9.9 10.1c-.9.9-1.2.9-1.3-.3-.1-.7-.1-1.7 0-2.2 0-.4-.3-.7-.9-.7-.5 0-1-.6-1-1.2 0-.7 1-.2 2.2 1 1.7 1.7 2 2.4 1 3.4zm-89.9-.7c3.3.7 6.1 1.6 6.3 1.8.3.2-2.4.7-5.8 1.1-19.6 2.1-44.3 7.3-47.4 9.9-3.3 2.7-4.4 3.9-5.3 5.5-.8 1.4-1.3 1.4-3.3.4-1.2-.6-3.5-1.6-5-2.2-3.2-1.1-3.6-2.8-1-3.6.9-.3 4.8-1.7 8.6-3.1 3.8-1.4 9.7-3.2 13-3.8 3.4-.7 10.9-2.2 16.9-3.4 5.9-1.2 11.7-2.6 13-3.1 2.9-1.2 3.3-1.2 10 .5zm27.6 23c0 2.8-.1 2.7-1.8-1.5-3.2-8-3.4-8.8-1.4-9.2 1.4-.3 1.9.5 2.5 3.7.3 2.2.7 5.3.7 7z" class="top-half-head"/><path stroke-width="1" d="M164.5 1.4c5.7 1.8 10.2 4.3 10.8 6.1.4.8 1.3 1.5 2 1.5 2.3 0 3.9 2.6 6.8 11.3 2.9 8.6 4 8.8 1.4.3-1.2-4-1.2-4.6-.1-3.7 1.8 1.5 5.2 9.6 6.1 14.4 1.1 5.6 3 4 2.9-2.4 0-6.3-2.8-12.6-8.2-18.9-4.2-5-12-10.3-13.6-9.2-1.7 1-3.6 1.1-3.6.1 0-.5-1.9-.9-4.2-.8h-4.3l4 1.3z" class="top-hair"/><g class="head-details"><path stroke-width="1" d="M172.3 9.2c-.6.7-1.3 3.8-1.7 6.8-.7 5.2-.6 5.4.9 3.3C173 17.2 174.8 8 173.8 8c-.3 0-1 .6-1.5 1.2zM153 20.4c0 .2 1.6 3.5 3.5 7.2 3.9 7.8 4.6 14.4 1.9 19.9-2.1 4.6-4.5 6.5-10.6 8.6-3.6 1.2-4.5 1.8-2.8 1.8 3.8.1 10.3-3.3 13.3-6.8 3.3-4 5-10 4.1-14.9-1-5.3-6.8-16.2-8.8-16.2-.3 0-.6.2-.6.4zM111.3 25C99.3 29.3 87 37.7 87 41.6c0 1.5.3 1.4 1.7-.6 1-1.4 2.7-3.3 3.8-4.2 3.4-2.9 15.7-8.5 22.5-10.4 3.6-.9 6.9-2.1 7.5-2.5 1.7-1.6-5.9-.8-11.2 1.1zM143.4 32.5c-2.3 4.9-2 5.3 1.3 2.7 1.8-1.3 2.1-2.3 1.5-4.4-.7-2.8-.7-2.8-2.8 1.7zM219.7 50.3c-.9 2.4-.9 6.2.1 7.1.4.4.7 1.5.8 2.4.3 4.5.5 5.2 1.5 5.2s.7-4.5-1-13c-.5-2.7-.8-3.1-1.4-1.7zM222.6 49.7c.7.4 2.1 3.7 3.3 7.3 2 6 2.1 6.1 1.6 2-.7-5.4-2.5-9.2-4.5-9.8-1-.2-1.1-.1-.4.5zM97.5 64c-.8 3.7-3.8 6.1-12.9 10.4-8.9 4.2-20.3 7-25.6 6.3-4.6-.6-5.3.8-1.2 2.4C62.6 85 75.2 81.9 87 76c6.7-3.4 10.8-7.5 11.6-11.8.8-4-.2-4.3-1.1-.2zM198.4 63.4c-.3.8-.4 2.5-.2 3.8.3 1.7.5 1.3.9-1.5.5-3.8.2-4.7-.7-2.3zM112.5 68c-1.4 2.2-2.5 4.1-2.5 4.4 0 .2-.8 2.1-1.7 4.2-2.6 6-5.4 17.2-5.8 23.9-.3 4.9 0 3.8 2-5.5 2.7-13.4 4.4-18.3 8.6-25.6 3.5-6.3 3.1-7.3-.6-1.4zM78.4 86c-2.2 1-8.4 2.8-13.7 4-5.4 1.2-9.7 2.6-9.7 3.1 0 1.3 1.5 1.1 10.5-1C74.7 89.8 83 86.5 83 85c0-.5-.1-1-.2-.9-.2 0-2.1.9-4.4 1.9zM101 111.7c0 2.7-.3 5.8-.6 7-.4 1.3-.2 2.3.4 2.3.6 0 1.2-3.1 1.4-7 .2-3.9 0-7-.4-7-.5 0-.8 2.1-.8 4.7zM100.5 130.7c.3 4.8 1 9.2 1.6 9.8.9.7 1 .1.5-2.4-.3-1.8-.6-6.2-.6-9.7 0-3.5-.4-6.4-1-6.4s-.8 3.4-.5 8.7zM150.5 144.4c-11 7-13.5 8.8-13.5 9.6 0 .6.4 1 .9 1 1.5 0 16.1-10.1 16.1-11.1 0-1.2-1.1-1.1-3.5.5zM230.5 172.1c-1 3.4-2.8 7.2-3.8 8.5-1.5 1.9-1.6 2.4-.4 2.4 1.5 0 7.2-13.9 6.6-15.9-.2-.6-1.3 1.7-2.4 5z"/></g><path stroke-width="12" d="M1945 2731c-36-22-103-91-89-91 6 0 26 16 45 36 42 44 83 67 112 61 18-4 17-5-5-6-35-1-91-50-117-103-22-45-17-73 7-42 10 14 16 16 19 6 13-34 54-34 178-1 66 17 124 35 128 39 25 22-34 68-129 100-74 25-111 25-149 1zm66-48c2-32-3-58-12-67-6-6-9-6-9 0-1 5-3 26-6 47-5 29-2 37 10 37 9 0 17-8 17-17zm101 5c7-7 18-13 23-13 12 0 61-33 54-38-2-1-31-10-64-18-33-9-68-20-79-24-16-7-17-6-7 13 6 11 11 37 11 56 0 31 3 36 24 36 14 0 31-6 38-12zm-161-58c-6-32-8-33-18-15-9 16-8 24 4 38 21 22 23 19 14-23z" style="stroke-dasharray:3000;stroke-dashoffset:3000;animation:dash-eye 12s linear forwards" transform="matrix(.1 0 0 -.1 0 446)"/><path stroke-width="1" d="M49.9 180.9c-8.6 8.9-11.2 21.9-6.7 33.8 1.6 4.5 3.8 7.4 9.4 13 4.4 4.3 7.6 8.4 7.9 10 .4 1.5.8 3.7 1 4.9.7 3.5 4.8 8.6 8.5 10.5 4.2 2.3 12 2.5 16 .4 1.7-.9 3.1-1.4 3.1-1.3.1.2.3 1.5.4 3 .8 6.3 6.9 13.7 14.6 17.5l4.5 2.2 2.3 14.3c6.9 43.8 6.9 43.7 4.6 41.8-4.7-3.9-22.7 11.5-29.9 25.9-2.5 4.9-4.3 7.2-7.2 8.8-2.2 1.2-10.2 6.7-17.9 12.3-7.7 5.5-18.7 13.3-24.3 17.3-23.2 16.2-25.1 18.5-29.7 36.4-3.2 12.6-3.2 14.3-.1 14.3 2.2 0 2.6-.7 3.6-5.7 2.2-10.6 7-23.7 9.3-25.6 1.2-1 14.4-10.9 29.2-22.1 14.9-11.2 27.9-21.3 28.9-22.5 1.1-1.1 2.5-2.1 3.3-2.1.7 0 1.3-.5 1.3-1.2 0-.6.2-.9.5-.7.9 1-.8 4.7-2 4.3-2.3-.9-11.5 26-11.5 33.6 0 2 .6 4.5 1.4 5.5 1.6 2.2 1.9 2.2 30.7-8.6 8.6-3.3 15.8-5.9 16-5.9.2 0 .4 3 .4 6.8.1 5.8.6 7.7 3.8 13.7 2.1 3.8 4.6 8.1 5.7 9.5 1.6 2.1 2 2.2 2.5.9.4-1-1.1-5.1-3.6-10-3.9-7.6-4.3-9.2-4.6-16.8-.1-4.6-.4-8.5-.6-8.7-.2-.2-3 .7-6.3 2-3.2 1.3-13.2 4.8-22.1 7.7-11.6 3.8-16.3 5.8-16.6 7-.3 1.2-1.1 1.6-2.6 1.2-1.9-.5-2.1-1.1-1.6-5.6.6-6.5 1.5-7.3 1.5-1.4 0 2.6.5 4.7 1 4.7.6 0 1-2.1 1-4.7 0-8.6 11.3-37.6 19.1-49 6.9-10 14.1-16.3 20.7-18.3l2.9-.8 1.1 11.7c.6 6.4 1.3 12.7 1.7 14.1l.7 2.5-1.4-2.4c-1.4-2.6-3.8-4-3.8-2.2 0 .6 1.5 5 3.4 9.8 6.4 16.2 18.4 49.7 22.9 63.7 3.7 11.4 4.9 14.1 6.7 14.8 1.3.5 2.5.6 2.7.4.6-.6-12-38.5-15.8-47.9-2.8-6.7-2.5-8.9.5-4.2 1.5 2.3 4.6 3.5 4.6 1.8 0-.3-2.7-3.4-6-6.9-5.1-5.2-6-6.8-6-9.8 0-4.2.4-4.3 5-1.3 6.7 4.6 17 7.9 25.7 8.5 10.6.6 15.4-1.1 21.7-7.8 2.5-2.7 4.6-4.4 4.7-3.7 0 .7.2 3.7.4 6.7s.7 11.2 1 18.1l.6 12.6-2.5.7c-1.3.3-3.4 1.9-4.6 3.6-4.9 6.9-3.1 15 4.1 17.8 3.8 1.5 3.9 1.6 3.9 6.4 0 4.5.2 4.8 2.5 4.8s2.5-.3 2.5-5.1c0-4.3.4-5.4 2.7-7.3 4.8-3.8 6.1-3.9 7.9-.3 2.2 4.2 6.9 8.7 9.2 8.7 1 0 2.8-.9 4-2 1.2-1.1 2.8-2 3.6-2 .8 0 1.8-.5 2.1-1 .4-.6 1-.8 1.5-.5.4.3 2.2-.6 3.8-2 1.6-1.4 3.8-2.5 4.8-2.5 1.1 0 3.9-1 6.4-2.1 2.5-1.2 6.8-2.3 9.7-2.5 2.9-.3 6.8-1.1 8.7-1.9 2-.8 5.1-1.5 7-1.5 1.9 0 3.8-.6 4.3-1.3.4-.6.6-4.5.4-8.5l-.3-7.3 3.9.7c2.1.4 3.9.7 3.9.8.1 0 .9 5.3 1.8 11.6 1.6 11.1 2.7 16.9 4.8 23.7.7 2.6 1.5 3.3 3.5 3.3 1.9 0 2.4-.4 1.9-1.6-1.6-4.1-7.5-39.4-6.7-39.4.3 0 1.5.7 2.5 1.5 4.5 3.4 5.1 2.2 6.1-10.6.6-8.5.6-8.5-2-9.7-3.6-1.6-8-1.5-9.5.3-.9 1.1-1.6 1.2-2.6.4-.7-.6-2.8-1.2-4.6-1.4-1.8-.2-8-2.6-13.8-5.3-9.4-4.4-26.1-11.2-27.5-11.2-1.7 0 0 1.8 3.3 3.5 2 1.1 4.8 2.6 6.1 3.4 1.3.8 5.9 3.2 10.3 5.2l7.9 3.7-3.6 2.2c-3.1 1.9-3.9 2-4.6.9-.5-.8-.9-1-.9-.4s-.3.6-.8-.1c-.8-1.3-7.3-3.6-8-2.9-.3.2.6.9 1.9 1.4l2.4 1h-2.7c-1.7.1-2.8-.4-2.8-1.2 0-4-17.1-24.5-29.1-34.9-7.8-6.7-24.3-17.1-29-18.3-2.4-.6-2.6-1.1-3.8-12.3-.7-6.4-1.4-12.9-1.7-14.4-.5-2.4 0-2.9 4.2-4.8 6-2.6 11.4-6.7 11.1-8.3-.1-.7.5-1.1 1.4-.9 1.7.2 6.3-5 9.8-11.4 1.3-2.2 2.8-4.1 3.5-4.1 2.1 0 16.3-9.2 20.6-13.4 4.3-4.1 7.4-10.2 8.6-16.4.5-2.7 1-3.5 2.2-3 2.7 1 6-2.3 8.2-8.2 1.2-3.2 3.7-7.4 5.5-9.3 4.4-4.5 6.5-9.7 6.5-15.9 0-5.8-4-19.4-6.6-22.2-1.8-2.1-5.9-2.6-6.9-.9-.5.8-1.2.7-2.2-.2-1.4-1.2-1.5-.3-1.1 8.5.5 8.7.3 10.2-1.8 14.8-1.3 2.8-2.4 6.5-2.4 8.3 0 4.6-6.6 31-8.9 35.4-2.2 4.3-6.6 8.5-17.1 16.7-4.1 3.3-11.1 9.3-15.6 13.4-14.3 13.5-28.5 18.4-36.4 12.7-1.9-1.4-5.2-3.4-7.2-4.6-2.1-1.1-3.8-2.4-3.8-2.9 0-.4-3-3.1-6.7-6-5.6-4.3-8.8-5.8-18.3-8.8-14.5-4.5-19.7-7.1-24.2-12.1-3-3.4-3.9-5.6-6.1-14.8-1.4-6-2.8-12.5-3.1-14.4-.6-3.4-.6-3.4 1.9 1.2 1.4 2.7 3 4.8 3.7 4.8 1.8 0 .3-5.9-4.2-16.4-5.8-13.8-7.5-21.3-6.3-27.6 1.2-6.2-.1-6.5-2.6-.8l-1.9 4.3-1.1-3c-1.6-3.9-9.5-13.1-14.4-16.6-6-4.3-9.1-3.9-14.8 2zm13 2.8c4.6 3.5 8.5 7.7 12.4 13.3 1.7 2.5 3.4 4.7 3.7 5 .4.3 1.2 3.4 1.9 7s1.7 7.3 2.3 8.3c.5 1.1 1.6 6.7 2.4 12.5.7 5.9 1.6 12.4 2 14.5.6 3.5.4 3.8-3 5.2-9.9 4.1-17.3 0-19.6-11-1.1-5.4-2-6.8-8.4-13.5-8.6-9.1-11.2-15-10.3-23.9.5-6.3 3.5-13.1 7.5-17.4 3.2-3.4 4.6-3.4 9.1 0zm188.1 12c4.3 13.9 3.6 20.5-3 27.7-4.2 4.5-6 8.2-6 12.2 0 2.8-4.1 7.5-4.8 5.5-.2-.7.4-1.9 1.4-2.6 1.8-1.4 1.8-1.4.1-1.5-1.2 0-1.6-.4-1-1.3.4-.6.8-1.7.8-2.2.7-9.3 2.2-16 4.8-21.4 2.9-6.2 3-6.7 2-13.5-.7-4.6-.7-7.5 0-8.4 2-2.6 3.7-1 5.7 5.5zm-135.6 80c.8.8 1.3.9 4.1 1.2 2.9.2 1.4 2.8-2.6 4.4-3.4 1.4-4.1 1.4-4.6.1-.3-.8-.3-2.1.1-2.9.3-.8.1-1.5-.5-1.5s-.7-.5-.4-1c.7-1.2 2.9-1.3 3.9-.3zm18.3 7.4c4.4 2.1 9.8 6 15.5 11.1 9.9 8.9 14.4 11.3 20 10.4l3.8-.6v3.9c0 5.2 2.7 28.4 4.6 39.5 1.5 9.1 2.8 12.6 4.3 12.6 1.2 0 2.2-2.7 1.6-4.3-.8-1.9-3.4-17.2-3-17.5.5-.6 8.8 3.9 17.5 9.6 13.7 8.9 35.1 31.6 37.5 40.1l.7 2.4-7.8-.8c-4.4-.4-12.1-1.6-17.2-2.6-5.1-1.1-9.7-1.7-10.1-1.5-.4.3-1.4 4.6-2.1 9.5-.9 6.3-1.8 9.5-3.1 10.7-1.2 1-1.9 3.1-2 5.3-.1 7.8-1.6-.6-2.3-12.9-.6-10.5-1.5-21.3-3-35-.1-1.4-1-2.6-1.9-2.8-1.3-.3-1.7.4-1.7 3 0 4.4-7.2 12.7-13.6 15.8-3.9 1.9-5.5 2.2-11.6 1.6-11.8-1.2-22.6-5.6-33.6-13.6-3.9-2.8-4.2-3.3-2.7-4.4 1.5-1.1 1.5-2.5.6-14.1-1.2-15.5-4.2-36.7-7.4-52.3l-2.3-11.2 3.6-1c1.9-.6 4.6-1.7 6-2.5 1.4-.8 2.6-1.4 2.7-1.5.2 0 3.3 1.4 7 3.1zm-5.9 91c.2 2.3.2 2.3-1.3.5-1.8-2.4-2-3.9-.2-3.4.6.3 1.3 1.5 1.5 2.9zm140 14.5c2.5 1.7 3.1 8 1 10.3-1 1.1-1 1.3 0 .7 1.5-.9 1.6.6 0 2.2-1.4 1.4-3.2 1.6-2.4.3.4-.5-.5-.4-1.9.2-2.4 1.2-2.4 1.2-.3 1.5 1.4.3 1.7.6.9 1.1-1 .6-.9 1.2.3 2.4 1.8 1.7 2.1 3.2.6 2.2-.5-.3-1-.2-1 .4 0 .5.6 1.2 1.3 1.5.9.4.9.8.1 1.1-.7.3-.9 1.5-.6 2.7.3 1.4.1 1.9-.6 1.4-.8-.5-1-.2-.6.8.3.9 1 1.3 1.5 1 .5-.3.9 0 .9.5 0 1.4-4.7 1.4-5.6 0-.3-.6-.1-1.5.6-1.9.7-.4 1-1.2.6-1.8-.7-1.1-6.1-.6-8.4.8-1.3.9-.9 1 1.9.5 3.3-.5 3.7-.3 4.1 1.9.3 1.4.2 2.4-.1 2.4-.3-.1-2.3.6-4.5 1.5-2.1.9-4.2 1.5-4.6 1.2-1-.6-3-9.5-3-13.4 0-2.4.6-3 3.9-4 2.1-.6 4.6-.8 5.5-.5 2 .8 2.1 3.4.1 3.5-.8.1-1.9.3-2.5.4-.5.1-1.4.3-2 .4-.5 0-1 .6-1 1.2s1.1.8 2.9.4c1.8-.4 3.4-.1 4.2.7 1.2 1.2 1.7 1.1 3.3-.6 1.6-1.6 1.6-1.8.3-1.3-1.1.4-1.7.1-1.7-.8 0-.8.5-1.5 1-1.5 2.1 0-.9-3.8-3.4-4.4-1.4-.3-3.5-1.6-4.6-2.8-1.1-1.2-2.3-1.8-2.7-1.4-.4.4-.2 1.1.5 1.5 2.5 1.5-2.9 4.7-8.5 4.9-4.2.2-5.5-.1-7.2-1.9-2.5-2.7-2.6-5-.6-8.9 1.8-3.5 5.2-6 8.2-6 3.1 0 7.3 2.1 7.3 3.7 0 2.1 1.5 1.5 2.9-1.1 2.4-4.4 9.6-6 13.9-3zm9.2 2 4 3.6v-3.6c0-3.3.2-3.6 3-3.6 2.2 0 3 .5 3 1.7 0 1.5.2 1.6 1 .3 1-1.5.7 2.7-.9 12.5l-.7 4-5.3-5-5.3-5 .7 4.6.7 4.6-3.2-.5-3.2-.5.6-7.1c.3-3.9.5-7.7.6-8.4 0-1.8.6-1.5 5 2.4zm-55.1 2.9c.5.6-1.4 1.2-6.1 2-2.1.3-5.7 2.1-8 3.9-3.5 2.7-4.3 3.8-4.2 6.4.2 3.1.2 3.1-2.3 1.5-1.6-1.1-2.2-2.1-1.7-3.2.4-.9 1.5-4.5 2.5-8.1 1-3.6 1.8-6.5 1.8-6.6.2-.2 17.6 3.8 18 4.1zm11.3 1c.5 2.1.2 2.5-1.3 2s-1.9-.1-1.9 1.5c0 1.3.4 1.9 1.2 1.4.7-.4.8-.3.4.5-.4.6-.2 2.8.4 4.7 1 3 1 3.8-.1 4.5-2.6 1.7-3.6.9-4.9-3.9-.7-2.6-1.7-5.2-2.3-5.7-.7-.7-.8-.6-.3.2.4.8.1 1.3-.8 1.3-1.3 0-3.3-3.6-2.4-4.5.7-.7 9.3-4.4 10.4-4.4.7-.1 1.4 1 1.6 2.4zm-12.3 6.7c.7 2 .7 3.6.1 4.7-.5.9-1 1.2-1 .8 0-.5-.6-.5-1.2 0-.9.5-.1 1 2.2 1.3 2.7.4 3.5 1 3.5 2.5 0 1.8-.6 2-5.1 1.9-4.6-.1-5.1.1-4.7 1.7.3 1 .9 1.6 1.4 1.3.5-.3.9 0 .9.5 0 .6-1.3 1.1-2.9 1.1-2.4 0-3.4-.8-5.5-4.7-4.3-7.6-4.2-8.4.6-11.5 7.3-4.4 10.1-4.4 11.7.4zm-16.7 11.2c4.5 3 5.7 4.3 5.4 6-.2 1.1-.8 2-1.2 1.9-.5-.1-1.6-.3-2.4-.5-.8-.2-1.5.3-1.6.9-.3 2.7-.5 2.8-1.4 1.3-.6-1-1-1.1-1-.3 0 2.3-.2 2.8-1.2 4.1-.7.8-1.5.9-2.3.2-.8-.7-1.9-.2-3.6 1.8-2.2 2.4-2.2 2.5-.1.8 1.3-1.1 2.2-1.4 2.2-.7 0 .6-1.4 2-3.1 3-3.2 2-8.4 1.6-11.4-.9-3.9-3.2-2-12.7 3.2-15.3 2.6-1.4 2.9-1.3 4.6.9 1.3 1.8 1.4 2.4.5 2.6-.7 0-1.7.2-2.3.2-2.2.3-3.5 1.8-3.5 4.2 0 1.4.4 2.2 1 1.9.6-.3.7.1.4.9-.9 2.4 2.9 2 5.2-.5 1-1.1 2.5-1.8 3.4-1.6 1.3.3 1.4-.8 1.1-8.1-.3-6.9-.1-8.3 1.1-7.6.7.5 3.9 2.6 7 4.8zm41.1.8c.4 2.9 1.1 5.4 1.6 5.6.5.2.7 1.3.4 2.5-.4 1.8-.3 1.9.6.7.9-1.3 1.1-1.3 1.1.1 0 1.8-3.1 3.1-4.8 2-.5-.3-1.5-3.3-2.2-6.6-.6-3.3-1.4-6.8-1.6-7.7-.3-1 .2-1.8 1.3-2 2.7-.7 3-.3 3.6 5.4zm-6.5-2.2c1.2 2 .6 2.5-2 2.1-1-.1-1 2.5-.1 5.7.3 1.4.9 1.9 1.3 1.3.3-.7 1.1.4 1.7 2.4 1.1 3.4 1 3.5-1.5 4.1-1.5.3-3.5 1-4.6 1.5-1.2.7-2.2.7-2.9 0-.7-.7-1.9-.1-3.7 2.1-4.4 5-6 3.4-6-5.6 0-11.4.4-11.7 6.6-5.5 3 2.9 5.4 6 5.4 6.8 0 1 .3 1.2 1 .5 1.3-1.3-2.1-10.6-3.7-10-.7.3-1.7-.3-2.2-1.2-.8-1.4-.2-2.1 3.2-3.9 5.2-2.8 5.9-2.8 7.5-.3zm-22.2 9.1c.8 1.4-1.6 8-2.7 7.4-.5-.4-.9-.1-.9.4 0 .6 1.3 1.1 3 1.1 1.9 0 3.3.7 4 1.9 1.7 3.3 1.3 4.2-1.6 3.1-3.7-1.4-5.4-1.2-4.8.5.4.8 1 1.2 1.5.9 1.6-.9 1 1.3-.7 2.7-1.4 1.2-2 .9-4-1.6-1.3-1.6-3.5-5.1-4.9-7.7-2.6-4.7-2.6-4.7-.5-5.8 1.7-.9 2.2-.7 3.1 1.7l1.2 2.8.8-3c.5-1.7.8-3.7.6-4.6-.3-1.2.2-1.4 2.5-1.1 1.5.2 3.1.8 3.4 1.3z" class="btm-half-head"/><g class="nose"><path stroke-width="1" d="M159.2 208.4c-2.2 2.3-4.3 5.4-4.7 6.7-1.2 3.8-4.8 7.9-12.4 14.4-3.9 3.3-7.1 6.5-7.1 7.2 0 1.8 2 2.7 3.3 1.4.9-.9.7-1.1-.8-.6-1.4.4-1.1-.1 1-1.7 1.6-1.3 5.2-4.4 8.1-7.1 2.8-2.6 5.4-4.7 5.7-4.7.4 0 .7 1.1.7 2.4 0 5.1 5.8 5.8 14.2 1.5 5.3-2.7 4.8-4-.9-2.3-6 1.8-8.9 1.8-9.7-.1-1.3-3.5 2.3-13.3 6.3-16.9 2.1-1.9 2.8-4.6 1.2-4.6-.5 0-2.7 2-4.9 4.4zM186.9 210.6c-2.3 2.8-6.7 4.4-12.4 4.4-3.5 0-5.4.4-5 1 .8 1.4 11.1 1.3 13.8-.1 2.8-1.5 6.7-5 6.7-6.1 0-1.3-1.7-.9-3.1.8z"/><path stroke-width="1" d="M190.2 216.4c-1.8.7-4.3 2.5-5.6 4-2.1 2.8-2.2 2.8-5.6 1.2-1.9-.8-4.3-2.1-5.2-2.8-1.5-1.1-2.8-.7-8.4 2-8 4-7.7 5.3.5 2.3l5.9-2.1 3.8 2.5c5.5 3.7 8.8 3.3 12.2-1.5 1.9-2.7 3.7-4.1 6-4.6 1.8-.3 3.5-1 3.8-1.5.7-1.2-3.4-.9-7.4.5z"/></g><path stroke-width="1" d="M57.7 195.8c-2.1 2.3-2.3 10.5-.3 12.1 1.9 1.6 2.9 0 2-3.3-.6-2.5 1-6.6 2.5-6.6 1.3 0 5.4 7.3 8.5 14.9 1.4 3.5 2.5 6.5 2.3 6.5-1.6.6-4.3 2.6-5.1 3.9-1.3 2-.2 4.2 3.7 7.1 2.1 1.5 3 1.7 3.9.8.9-.9.6-1.7-1.2-3.7-2.8-3-2.2-4 1.4-2.4 4.8 2.2 5 0 .6-10.5-7.6-18.3-13.4-24.2-18.3-18.8z"/><path stroke-width="1" d="M63.6 215c.3 1.9 1 3.9 1.5 4.4 1.3 1.4 1-.2-.7-4.4l-1.4-3.5.6 3.5zM73.5 240.6c-2.4 2.4-1.6 6.8 1.3 7.2 3.1.5 5.2-1.5 5.2-4.8 0-4-3.6-5.3-6.5-2.4zm4.5 2.1c-.1 1.9-1.9 3.5-3.4 3-2.1-.8-.9-3.7 1.5-3.7 1 0 1.9.3 1.9.7zM122.7 284.6c-2.7 1.4-4.7 2.7-4.5 3 .6.5 11.8-4.3 11.8-5.1 0-1.1-2.7-.3-7.3 2.1zM137.9 296.2c0 .2-.2 3-.5 6.3s-.9 7.3-1.3 9c-1.3 5.1-2.1 57.3-.9 55.1.4-.7.9-13.4 1.2-28.2.3-16.3 1-30 1.9-34.7.7-4.2 1-7.7.5-7.7-.4 0-.8.1-.9.2zM184 343.3c0 1.3 5.4 7.7 6.5 7.7 1.5 0 12.4 9.5 14.2 12.3.4.7 1.9 2.1 3.2 3.2l2.5 2-2.1-3c-2.7-3.8-12.4-13.1-18.3-17.6-2.5-1.8-4.8-3.8-5.2-4.4-.4-.5-.8-.6-.8-.2zM259.9 391.7c-.3.7-.7 2.5-.9 4.5-.2 2.2-.2 2.2-1.1-.2l-.8-2.5.2 2.5c.3 3.7 5 4 7.3.6 1.3-2.1 1.4-2.9.5-4-1-1.2-4.8-1.8-5.2-.9zM243.6 394.2c.5.8.2.9-.9.5-.9-.3-1.9-.1-2.3.5-.4.7-.3.8.4.4 1.4-.9 1.5.4.2 2.4-.8 1.2-1 1.2-1 .1 0-.8-.3-1.2-.6-.8-1.4 1.3.8 4.7 3.1 4.7 3.9 0 6.4-7.1 2.9-8.4-2.3-.9-2.6-.8-1.8.6zM286.2 394c0 1.9.2 2.7.5 1.7.2-.9.2-2.5 0-3.5-.3-.9-.5-.1-.5 1.8zM212.8 403.1c-1.8 1-2.5 4.9-1 4.9 1.2 0 4.2-3.4 4.2-4.8s-.9-1.5-3.2-.1zM157.5 179.5c1.4 11.4 1.4 13.5-.1 13.5-.8 0-1.2.4-.9 1 .3.5 1.3 1 2.2 1 1.3 0 1.5-1 .9-6.8-.4-3.8-1.1-8.2-1.6-9.8-.9-2.6-.9-2.5-.5 1.1z"/><path stroke-width="12" d="M1355 2681c-51-13-116-51-167-99-53-50-67-70-74-108l-5-25 88 6c94 7 217 22 246 31 9 3 17 10 17 16 0 5-6 8-14 5-7-3-35-9-62-13l-48-7 27 32c30 36 32 44 16 72-9 18-8 19 18 13 61-15 90-32 103-63 13-33 33-37 38-9 2 9-11 42-29 73-42 75-81 94-154 76zm106-42c21-18 21-20 4-13-11 4-51 9-89 12-79 5-71 22 10 22 38 0 58-5 75-21zm-111-40c0-26-40-100-51-93-5 2-4 15 0 27 5 12 4 33 0 45-12 30-4 42 27 42 18 0 24-5 24-21zm-80-40c-12-42-19-47-34-26-7 9-16 17-20 17-13 0-5-38 11-51 14-12 11-15-28-20-24-4-46-5-48-3-6 6 57 76 86 95 38 26 43 24 33-12z" style="stroke-dasharray:3000;stroke-dashoffset:3000;animation:dash-eye 12s linear forwards" transform="matrix(.1 0 0 -.1 0 446)"/><path stroke-width="1" d="M207 226.8c0 .6.8 1.3 1.8 1.5 1.3.4 1.2.5-.5.6-3.4.2-3.7 2-.9 4.2 2 1.5 2.6 2.9 2.6 5.7 0 6.4-.6 6.7-10.6 4.8-17.5-3.2-27.7-1.9-41.9 5.1-8.4 4.2-8.8 4.3-6.5 1.8 4.4-4.9 13.6-10.1 23.6-13.4 11.4-3.8 12.8-3.7 23.7 1.9 8.2 4.2 9.2 4.6 8.2 3-.4-.6-4.3-2.9-8.7-5.1-9.4-4.7-13.2-5-22.8-1.9-9.9 3.3-17.9 8-23.6 13.7-3.1 3.2-6.1 5.3-7.4 5.3-1.8 0-5.7-2.1-9-4.8-.3-.2.3-.8 1.3-1.3 3.2-1.8.7-2.9-3.1-1.4-3.7 1.5-3.7 1.5-1.4-.4 1.2-1.1 2.8-2.1 3.5-2.4.6-.2.9-.8.5-1.2-1.4-1.5-7 1.8-8.6 5.2-2 4.2-.7 5.8 3.1 3.8 2.6-1.3 3-1.2 7.4 2.1 3.4 2.6 5.3 3.4 7.2 3.1 1.6-.4 4.6.4 8 2 9.7 4.8 17.1 4.1 35.9-2.9 4.4-1.7 5.3-2.4 4.9-4-.4-1.2 0-2.1 1.1-2.4.9-.3 2.4-.9 3.2-1.3.8-.4 3.7-.2 6.5.5 6.4 1.7 6.2 1.7 7.4-.5 2.5-4.6 2.9-10 1.1-13.6l-1.8-3.5h3.9c4.9 0 5.4-2.5.7-3.3-1.8-.3-4.5-.9-6-1.2-1.7-.5-2.8-.3-2.8.3zm-14.8 18.8c4.7.8 3.9 2.4-1.1 2.4-2.8 0-4.2.6-5.2 2.1s-3.5 2.4-9.4 3.5c-4.3.9-8.7 2-9.6 2.5-1.2.6-2.1.4-2.9-.6-.8-.9-2.2-1.2-4.1-.8-1.5.3-4.1.2-5.6-.2l-2.8-.7 4-2.1c8.8-4.5 16.8-6.7 25-6.7 4.4 0 9.7.3 11.7.6z" class="mouth"/><path stroke-width="1" d="M128 255.8c0 1.5 9.6 14.3 11.6 15.5.8.5 1.1 1.4.8 2-.4.7-.4.9.1.5.4-.4 3.7 1.8 7.4 4.8 9.1 7.7 10.4 8.7 13.2 10.3 3.5 1.9 1.7.3-9.7-8.7-8.9-7-18.6-17.4-22.2-23.7-.6-1.1-1.2-1.4-1.2-.7zM193.5 262.2c-6.8 5.6-17 10.3-22 10.2-2.2-.1-7.3-1.2-11.2-2.6-5.4-1.8-7.3-2.1-7.3-1.1 0 3 16.8 8.9 22.3 7.8 8.5-1.9 20.2-9.7 23.3-15.6 2-3.9.9-3.6-5.1 1.3zM170.5 280.6l-4 1.4 4.8-.5c5.5-.5 10.1-2.5 5.7-2.4-1.4 0-4.3.7-6.5 1.5zM163.8 292.2c1.2.6 2.2 1.5 2.2 2 0 .4.5.8 1 .8.7 0 .7-.6 0-2-.6-1.1-2-2-3.3-1.9h-2.2l2.3 1.1zM106.4 343.2c-.9 1.8-3 5.2-4.6 7.6-3.4 4.9-10.8 19.4-10.8 21.1 0 .6.5 1.1 1 1.1.6 0 1-.6 1-1.3 0-.7.9-2.9 2-5 1.1-2 2.1-4 2.2-4.4.4-1.6 3.4-6.7 6.4-10.6 3-4.1 5.8-10.6 5-11.5-.3-.2-1.2 1.1-2.2 3zM32.9 410C25 419.5 19 428.3 19 430.5c0 .5 1.7-1.5 3.8-4.6 2-3.1 4.8-6.9 6.2-8.3 1.4-1.5 3.7-4 5.1-5.5 2.4-2.7 8.4-12.1 7.6-12.1-.2 0-4.2 4.5-8.8 10zM45 429.5c0 .3 1.9 3.4 4.3 6.9 2.3 3.5 4.7 7.1 5.2 8.1.6 1 1.7 1.6 2.4 1.4.8-.3-.8-3.3-4.6-8.7-5.1-7.2-7.3-9.5-7.3-7.7zM17.6 434.6c-1 3.7-.2 3.9 1.1.4.6-1.7.8-3 .3-3-.4 0-1.1 1.2-1.4 2.6zM200 442.8c-1.9.2-3.9.8-4.4 1.3-.6.5 13.9.9 37.7.9 21.3 0 38.7-.4 38.7-.8 0-.5-1.5-.8-3.2-.7-1.8.2-3.7 0-4.2-.3-1-.6-58.7-.9-64.6-.4zM90.6 444.2c.2.4 4.5.7 9.6.7 5 0 8.9-.1 8.6-.4-.7-.7-18.6-1-18.2-.3zM116.2 444.1c-.9.4 5.2.7 13.7.7 8.4.1 15-.2 14.7-.5-.8-.9-26.2-1-28.4-.2z"/></g></svg>
