 <svg version="1.0" xmlns="http://www.w3.org/2000/svg"  width="300.000000pt" height="446.000000pt" viewBox="0 0 300.000000 446.000000"  preserveAspectRatio="xMidYMid meet"> 
<style>

#all-paths {
  stroke-dasharray: 100000;
  stroke-dashoffset: 100000;
  animation: dash 15s linear forwards;
}

@keyframes dash {
  to {
    stroke-dashoffset: 0;
  }
}

.eye-right, .eye-left {
  stroke-dasharray: 3000;
  stroke-dashoffset: 3000;
  animation: dash-eye 12s linear forwards
}
@keyframes dash-eye {
  to {
    stroke-dashoffset: 0;
  }
}
</style> 
 <g xmlns="http://www.w3.org/2000/svg" id="all-paths" transform="translate(0.000000,446.000000) scale(0.100000,-0.100000)" stroke="white" stroke-width="10"> 
 <g class="top-half-head"><path fill="black"  d="M1055 4438 c-118 -84 -239 -258 -281 -405 -14 -51 -29 -71 -113 -158 -215 -223 -266 -327 -231 -476 14 -61 79 -235 121 -324 71 -153 129 -278 129 -281 0 -2 -9 -4 -20 -4 -11 0 -20 -5 -20 -11 0 -7 10 -9 25 -6 24 4 29 -3 65 -77 22 -44 48 -92 59 -106 34 -43 36 0 3 78 -28 66 -28 71 -11 75 28 8 23 23 -8 22 -42 0 -36 18 15 46 l47 26 22 -56 c31 -81 36 -130 18 -165 -20 -39 -18 -46 5 -17 11 13 20 34 20 47 0 29 12 36 45 28 24 -6 25 -9 25 -85 0 -121 48 -346 87 -405 22 -35 66 -47 142 -41 130 11 317 84 288 113 -2 3 -67 -4 -143 -16 -176 -25 -228 -26 -252 -2 -26 26 -65 217 -66 327 -1 122 12 146 96 174 104 34 276 63 404 68 l121 6 6 -39 c4 -22 7 -93 7 -159 0 -106 9 -160 23 -145 11 11 27 192 21 230 -5 32 -4 40 9 40 9 0 19 -10 23 -22 13 -43 78 -174 105 -214 15 -22 57 -59 93 -82 67 -44 116 -94 97 -100 -6 -2 -11 -9 -11 -17 0 -7 -21 -22 -47 -33 l-48 -20 35 -1 c20 -1 45 6 57 14 14 10 32 13 48 9 27 -7 36 10 10 20 -8 3 -15 18 -15 32 0 36 -76 109 -127 123 -54 15 -93 85 -93 167 1 113 16 185 48 216 35 36 132 63 285 80 90 9 110 9 117 -2 6 -10 12 -11 22 -3 7 5 24 7 38 3 24 -6 25 -10 25 -75 0 -126 -29 -317 -59 -389 -16 -40 -51 -66 -86 -66 -43 0 -100 -20 -100 -35 0 -22 34 -35 90 -35 69 0 108 22 130 73 22 50 69 287 71 355 2 65 12 110 22 95 16 -25 27 -12 27 31 0 59 -8 76 -34 76 -11 0 -32 12 -45 25 -13 14 -30 25 -38 25 -23 0 -37 21 -62 98 l-24 72 22 128 c63 365 71 422 71 512 0 79 -4 104 -24 146 -25 53 -82 107 -151 142 -51 25 -145 53 -156 46 -19 -11 -7 -22 49 -43 93 -34 176 -92 209 -148 26 -44 28 -56 27 -143 -1 -52 -9 -144 -19 -205 -10 -60 -25 -161 -34 -223 -15 -104 -31 -139 -31 -70 0 15 -4 28 -9 28 -4 0 -11 37 -15 83 -4 45 -9 98 -12 118 -6 35 -5 37 29 43 19 4 41 14 48 23 13 15 11 16 -16 10 -16 -4 -39 -9 -51 -12 -17 -5 -22 0 -33 37 -7 24 -15 51 -17 61 -5 15 -2 16 21 7 39 -15 91 -12 105 5 11 13 5 15 -44 15 -32 0 -66 5 -76 10 -11 6 -38 47 -62 92 -42 82 -140 199 -154 186 -4 -5 11 -30 33 -56 54 -63 83 -112 83 -138 0 -12 11 -37 23 -56 21 -30 67 -148 67 -170 0 -4 -7 -5 -15 -2 -10 4 -13 13 -10 25 5 14 2 17 -10 13 -23 -9 -15 -47 12 -59 30 -13 30 -14 44 -162 8 -87 17 -132 27 -140 7 -6 11 -20 8 -30 -3 -10 0 -28 7 -40 7 -12 11 -47 9 -80 l-4 -58 -82 -2 c-46 -2 -94 -7 -107 -13 -18 -7 0 -9 66 -4 74 4 100 2 145 -15 48 -17 51 -20 25 -21 -16 0 -61 -3 -99 -6 -50 -4 -66 -3 -61 5 5 8 -1 10 -18 6 -21 -6 -78 4 -123 22 -8 3 -14 1 -14 -5 0 -5 12 -13 28 -17 15 -4 22 -9 15 -12 -6 -2 -34 7 -62 22 -28 14 -51 21 -51 15 0 -5 -7 -7 -15 -4 -28 11 -15 -11 21 -34 29 -19 52 -24 132 -27 133 -5 132 -5 132 -16 0 -5 -8 -10 -17 -10 -41 -3 -63 -8 -150 -33 -51 -14 -95 -26 -100 -26 -4 0 10 15 32 34 22 19 37 38 33 41 -3 4 -27 -2 -52 -13 -47 -21 -86 -70 -86 -107 0 -17 -6 -21 -32 -21 -18 0 -45 -3 -59 -7 -22 -6 -27 -2 -38 28 -15 44 -55 65 -131 72 l-57 5 43 40 c41 38 71 93 56 102 -5 3 -20 -15 -35 -39 -43 -68 -111 -111 -188 -120 -94 -11 -299 -63 -337 -85 -38 -23 -46 -25 -36 -9 10 16 213 111 309 145 87 30 91 32 83 39 -10 10 -143 -37 -238 -83 -52 -26 -98 -48 -102 -50 -11 -5 -10 59 3 118 14 66 7 84 -16 40 -13 -24 -19 -57 -19 -105 0 -69 -1 -71 -34 -93 -18 -12 -44 -25 -56 -28 -22 -5 -25 3 -74 168 -85 289 -85 293 -21 434 58 128 254 477 291 520 l19 21 33 -33 c35 -35 108 -61 191 -68 28 -2 86 -8 130 -11 134 -12 236 27 350 135 33 32 66 56 73 54 7 -1 8 0 2 3 -7 3 -6 11 1 24 24 46 -2 36 -94 -35 -96 -74 -156 -109 -216 -126 -38 -11 -38 -9 -5 27 50 54 86 140 91 222 7 100 -9 155 -57 203 -40 40 -80 49 -121 28 -32 -18 -21 -28 26 -23 39 5 47 2 74 -24 79 -80 62 -283 -35 -410 -23 -30 -30 -33 -77 -33 -29 0 -83 7 -122 16 -75 16 -157 32 -192 37 -11 2 -28 9 -36 15 -10 9 -17 10 -22 2 -3 -5 -14 -10 -23 -10 -51 0 -361 -532 -377 -647 -5 -36 -1 -75 15 -139 18 -79 57 -210 75 -256 5 -12 -5 -23 -38 -42 -24 -14 -48 -26 -53 -26 -5 0 -31 46 -56 103 -65 143 -63 134 -34 141 31 8 74 68 81 116 5 30 4 32 -5 11 -17 -38 -49 -79 -80 -101 l-29 -21 -16 38 c-9 22 -12 39 -6 41 5 2 27 16 49 31 44 33 75 89 69 129 -4 26 -4 26 -12 -8 -9 -38 -98 -134 -118 -127 -15 5 -82 174 -98 246 -15 71 -8 128 24 193 31 63 142 204 264 335 48 52 90 99 91 104 6 16 -11 10 -35 -13 -48 -45 -21 6 34 63 59 62 165 135 241 165 58 23 46 30 -17 9 -63 -21 -154 -80 -208 -136 -24 -23 -43 -39 -43 -33 0 17 79 145 129 208 76 96 108 120 181 138 l65 16 -60 1 c-46 0 -67 -5 -90 -21z m1224 -1395 c1 -7 -6 -10 -14 -7 -16 6 -21 45 -8 58 7 7 20 -22 22 -51z m54 -74 l21 -12 -21 -8 c-24 -9 -103 0 -103 12 0 7 26 15 63 18 10 0 28 -4 40 -10z m99 -101 c-9 -9 -12 -9 -13 3 -1 7 -1 17 0 22 0 4 -3 7 -9 7 -5 0 -10 6 -10 12 0 7 10 2 22 -10 17 -17 20 -24 10 -34z m-899 7 c33 -7 61 -16 63 -18 3 -2 -24 -7 -58 -11 -196 -21 -443 -73 -474 -99 -33 -27 -44 -39 -53 -55 -8 -14 -13 -14 -33 -4 -12 6 -35 16 -50 22 -32 11 -36 28 -10 36 9 3 48 17 86 31 38 14 97 32 130 38 34 7 109 22 169 34 59 12 117 26 130 31 29 12 33 12 100 -5z m276 -230 c0 -28 -1 -27 -18 15 -32 80 -34 88 -14 92 14 3 19 -5 25 -37 3 -22 7 -53 7 -70z"/> </g>
 <path class="top-hair" d="M1645 4446 c57 -18 102 -43 108 -61 4 -8 13 -15 20 -15 23 0 39 -26 68 -113 29 -86 40 -88 14 -3 -12 40 -12 46 -1 37 18 -15 52 -96 61 -144 11 -56 30 -40 29 24 0 63 -28 126 -82 189 -42 50 -120 103 -136 92 -17 -10 -36 -11 -36 -1 0 5 -19 9 -42 8 l-43 0 40 -13z"/> 
 <g class="head-details">
<path  d="M1723 4368 c-6 -7 -13 -38 -17 -68 -7 -52 -6 -54 9 -33 15 21 33 113 23 113 -3 0 -10 -6 -15 -12z"/>  
<path d="M1530 4256 c0 -2 16 -35 35 -72 39 -78 46 -144 19 -199 -21 -46 -45 -65 -106 -86 -36 -12 -45 -18 -28 -18 38 -1 103 33 133 68 33 40 50 100 41 149 -10 53 -68 162 -88 162 -3 0 -6 -2 -6 -4z"/>   
<path d="M1113 4210 c-120 -43 -243 -127 -243 -166 0 -15 3 -14 17 6 10 14 27 33 38 42 34 29 157 85 225 104 36 9 69 21 75 25 17 16 -59 8 -112 -11z"/>  <path d="M1434 4135 c-23 -49 -20 -53 13 -27 18 13 21 23 15 44 -7 28 -7 28 -28 -17z"/>    
<path d="M2197 3957 c-9 -24 -9 -62 1 -71 4 -4 7 -15 8 -24 3 -45 5 -52 15 -52 10 0 7 45 -10 130 -5 27 -8 31 -14 17z"/> 
<path d="M2226 3963 c7 -4 21 -37 33 -73 20 -60 21 -61 16 -20 -7 54 -25 92 -45 98 -10 2 -11 1 -4 -5z"/> 
<path d="M975 3820 c-8 -37 -38 -61 -129 -104 -89 -42 -203 -70 -256 -63 -46 6 -53 -8 -12 -24 48 -19 174 12 292 71 67 34 108 75 116 118 8 40 -2 43 -11 2z"/> 
<path d="M1984 3826 c-3 -8 -4 -25 -2 -38 3 -17 5 -13 9 15 5 38 2 47 -7 23z"/>  
<path d="M1125 3780 c-14 -22 -25 -41 -25 -44 0 -2 -8 -21 -17 -42 -26 -60 -54 -172 -58 -239 -3 -49 0 -38 20 55 27 134 44 183 86 256 35 63 31 73 -6 14z"/>     
<path d="M784 3600 c-22 -10 -84 -28 -137 -40 -54 -12 -97 -26 -97 -31 0 -13 15 -11 105 10 92 23 175 56 175 71 0 5 -1 10 -2 9 -2 0 -21 -9 -44 -19z"/>       
<path d="M1010 3343 c0 -27 -3 -58 -6 -70 -4 -13 -2 -23 4 -23 6 0 12 31 14 70 2 39 0 70 -4 70 -5 0 -8 -21 -8 -47z"/>      
<path d="M1005 3153 c3 -48 10 -92 16 -98 9 -7 10 -1 5 24 -3 18 -6 62 -6 97 0 35 -4 64 -10 64 -6 0 -8 -34 -5 -87z"/> 
<path d="M1505 3016 c-110 -70 -135 -88 -135 -96 0 -6 4 -10 9 -10 15 0 161 101 161 111 0 12 -11 11 -35 -5z"/>  
<path d="M2305 2739 c-10 -34 -28 -72 -38 -85 -15 -19 -16 -24 -4 -24 15 0 72 139 66 159 -2 6 -13 -17 -24 -50z"/>   
</g>
<path class="eye-left" stroke-width="12" fill="black" d="M1945 2731 c-36 -22 -103 -91 -89 -91 6 0 26 16 45 36 42 44 83 67 112 61 18 -4 17 -5 -5 -6 -35 -1 -91 -50 -117 -103 -22 -45 -17 -73 7 -42 10 14 16 16 19 6 13 -34 54 -34 178 -1 66 17 124 35 128 39 25 22 -34 68 -129 100 -74 25 -111 25 -149 1z m66 -48 c2 -32 -3 -58 -12 -67 -6 -6 -9 -6 -9 0 -1 5 -3 26 -6 47 -5 29 -2 37 10 37 9 0 17 -8 17 -17z m101 5 c7 -7 18 -13 23 -13 12 0 61 -33 54 -38 -2 -1 -31 -10 -64 -18 -33 -9 -68 -20 -79 -24 -16 -7 -17 -6 -7 13 6 11 11 37 11 56 0 31 3 36 24 36 14 0 31 -6 38 -12z m-161 -58 c-6 -32 -8 -33 -18 -15 -9 16 -8 24 4 38 21 22 23 19 14 -23z"/>    
<path class="btm-half-head" d="M499 2651 c-86 -89 -112 -219 -67 -338 16 -45 38 -74 94 -130 44 -43 76 -84 79 -100 4 -15 8 -37 10 -49 7 -35 48 -86 85 -105 42 -23 120 -25 160 -4 17 9 31 14 31 13 1 -2 3 -15 4 -30 8 -63 69 -137 146 -175 l45 -22 23 -143 c69 -438 69 -437 46 -418 -47 39 -227 -115 -299 -259 -25 -49 -43 -72 -72 -88 -22 -12 -102 -67 -179 -123 -77 -55 -187 -133 -243 -173 -232 -162 -251 -185 -297 -364 -32 -126 -32 -143 -1 -143 22 0 26 7 36 57 22 106 70 237 93 256 12 10 144 109 292 221 149 112 279 213 289 225 11 11 25 21 33 21 7 0 13 5 13 12 0 6 2 9 5 7 9 -10 -8 -47 -20 -43 -23 9 -115 -260 -115 -336 0 -20 6 -45 14 -55 16 -22 19 -22 307 86 86 33 158 59 160 59 2 0 4 -30 4 -68 1 -58 6 -77 38 -137 21 -38 46 -81 57 -95 16 -21 20 -22 25 -9 4 10 -11 51 -36 100 -39 76 -43 92 -46 168 -1 46 -4 85 -6 87 -2 2 -30 -7 -63 -20 -32 -13 -132 -48 -221 -77 -116 -38 -163 -58 -166 -70 -3 -12 -11 -16 -26 -12 -19 5 -21 11 -16 56 6 65 15 73 15 14 0 -26 5 -47 10 -47 6 0 10 21 10 47 0 86 113 376 191 490 69 100 141 163 207 183 l29 8 11 -117 c6 -64 13 -127 17 -141 l7 -25 -14 24 c-14 26 -38 40 -38 22 0 -6 15 -50 34 -98 64 -162 184 -497 229 -637 37 -114 49 -141 67 -148 13 -5 25 -6 27 -4 6 6 -120 385 -158 479 -28 67 -25 89 5 42 15 -23 46 -35 46 -18 0 3 -27 34 -60 69 -51 52 -60 68 -60 98 0 42 4 43 50 13 67 -46 170 -79 257 -85 106 -6 154 11 217 78 25 27 46 44 47 37 0 -7 2 -37 4 -67 2 -30 7 -112 10 -181 l6 -126 -25 -7 c-13 -3 -34 -19 -46 -36 -49 -69 -31 -150 41 -178 38 -15 39 -16 39 -64 0 -45 2 -48 25 -48 23 0 25 3 25 51 0 43 4 54 27 73 48 38 61 39 79 3 22 -42 69 -87 92 -87 10 0 28 9 40 20 12 11 28 20 36 20 8 0 18 5 21 10 4 6 10 8 15 5 4 -3 22 6 38 20 16 14 38 25 48 25 11 0 39 10 64 21 25 12 68 23 97 25 29 3 68 11 87 19 20 8 51 15 70 15 19 0 38 6 43 13 4 6 6 45 4 85 l-3 73 39 -7 c21 -4 39 -7 39 -8 1 0 9 -53 18 -116 16 -111 27 -169 48 -237 7 -26 15 -33 35 -33 19 0 24 4 19 16 -16 41 -75 394 -67 394 3 0 15 -7 25 -15 45 -34 51 -22 61 106 6 85 6 85 -20 97 -36 16 -80 15 -95 -3 -9 -11 -16 -12 -26 -4 -7 6 -28 12 -46 14 -18 2 -80 26 -138 53 -94 44 -261 112 -275 112 -17 0 0 -18 33 -35 20 -11 48 -26 61 -34 13 -8 59 -32 103 -52 l79 -37 -36 -22 c-31 -19 -39 -20 -46 -9 -5 8 -9 10 -9 4 0 -6 -3 -6 -8 1 -8 13 -73 36 -80 29 -3 -2 6 -9 19 -14 l24 -10 -27 0 c-17 -1 -28 4 -28 12 0 40 -171 245 -291 349 -78 67 -243 171 -290 183 -24 6 -26 11 -38 123 -7 64 -14 129 -17 144 -5 24 0 29 42 48 60 26 114 67 111 83 -1 7 5 11 14 9 17 -2 63 50 98 114 13 22 28 41 35 41 21 0 163 92 206 134 43 41 74 102 86 164 5 27 10 35 22 30 27 -10 60 23 82 82 12 32 37 74 55 93 44 45 65 97 65 159 0 58 -40 194 -66 222 -18 21 -59 26 -69 9 -5 -8 -12 -7 -22 2 -14 12 -15 3 -11 -85 5 -87 3 -102 -18 -148 -13 -28 -24 -65 -24 -83 0 -46 -66 -310 -89 -354 -22 -43 -66 -85 -171 -167 -41 -33 -111 -93 -156 -134 -143 -135 -285 -184 -364 -127 -19 14 -52 34 -72 46 -21 11 -38 24 -38 29 0 4 -30 31 -67 60 -56 43 -88 58 -183 88 -145 45 -197 71 -242 121 -30 34 -39 56 -61 148 -14 60 -28 125 -31 144 -6 34 -6 34 19 -12 14 -27 30 -48 37 -48 18 0 3 59 -42 164 -58 138 -75 213 -63 276 12 62 -1 65 -26 8 l-19 -43 -11 30 c-16 39 -95 131 -144 166 -60 43 -91 39 -148 -20z m130 -28 c46 -35 85 -77 124 -133 17 -25 34 -47 37 -50 4 -3 12 -34 19 -70 7 -36 17 -73 23 -83 5 -11 16 -67 24 -125 7 -59 16 -124 20 -145 6 -35 4 -38 -30 -52 -99 -41 -173 0 -196 110 -11 54 -20 68 -84 135 -86 91 -112 150 -103 239 5 63 35 131 75 174 32 34 46 34 91 0z m1881 -120 c43 -139 36 -205 -30 -277 -42 -45 -60 -82 -60 -122 0 -28 -41 -75 -48 -55 -2 7 4 19 14 26 18 14 18 14 1 15 -12 0 -16 4 -10 13 4 6 8 17 8 22 7 93 22 160 48 214 29 62 30 67 20 135 -7 46 -7 75 0 84 20 26 37 10 57 -55z m-1356 -800 c8 -8 13 -9 41 -12 29 -2 14 -28 -26 -44 -34 -14 -41 -14 -46 -1 -3 8 -3 21 1 29 3 8 1 15 -5 15 -6 0 -7 5 -4 10 7 12 29 13 39 3z m183 -74 c44 -21 98 -60 155 -111 99 -89 144 -113 200 -104 l38 6 0 -39 c0 -52 27 -284 46 -395 15 -91 28 -126 43 -126 12 0 22 27 16 43 -8 19 -34 172 -30 175 5 6 88 -39 175 -96 137 -89 351 -316 375 -401 l7 -24 -78 8 c-44 4 -121 16 -172 26 -51 11 -97 17 -101 15 -4 -3 -14 -46 -21 -95 -9 -63 -18 -95 -31 -107 -12 -10 -19 -31 -20 -53 -1 -78 -16 6 -23 129 -6 105 -15 213 -30 350 -1 14 -10 26 -19 28 -13 3 -17 -4 -17 -30 0 -44 -72 -127 -136 -158 -39 -19 -55 -22 -116 -16 -118 12 -226 56 -336 136 -39 28 -42 33 -27 44 15 11 15 25 6 141 -12 155 -42 367 -74 523 l-23 112 36 10 c19 6 46 17 60 25 14 8 26 14 27 15 2 0 33 -14 70 -31z m-59 -910 c2 -23 2 -23 -13 -5 -18 24 -20 39 -2 34 6 -3 13 -15 15 -29z m1400 -145 c25 -17 31 -80 10 -103 -10 -11 -10 -13 0 -7 15 9 16 -6 0 -22 -14 -14 -32 -16 -24 -3 4 5 -5 4 -19 -2 -24 -12 -24 -12 -3 -15 14 -3 17 -6 9 -11 -10 -6 -9 -12 3 -24 18 -17 21 -32 6 -22 -5 3 -10 2 -10 -4 0 -5 6 -12 13 -15 9 -4 9 -8 1 -11 -7 -3 -9 -15 -6 -27 3 -14 1 -19 -6 -14 -8 5 -10 2 -6 -8 3 -9 10 -13 15 -10 5 3 9 0 9 -5 0 -14 -47 -14 -56 0 -3 6 -1 15 6 19 7 4 10 12 6 18 -7 11 -61 6 -84 -8 -13 -9 -9 -10 19 -5 33 5 37 3 41 -19 3 -14 2 -24 -1 -24 -3 1 -23 -6 -45 -15 -21 -9 -42 -15 -46 -12 -10 6 -30 95 -30 134 0 24 6 30 39 40 21 6 46 8 55 5 20 -8 21 -34 1 -35 -8 -1 -19 -3 -25 -4 -5 -1 -14 -3 -20 -4 -5 0 -10 -6 -10 -12 0 -6 11 -8 29 -4 18 4 34 1 42 -7 12 -12 17 -11 33 6 16 16 16 18 3 13 -11 -4 -17 -1 -17 8 0 8 5 15 10 15 21 0 -9 38 -34 44 -14 3 -35 16 -46 28 -11 12 -23 18 -27 14 -4 -4 -2 -11 5 -15 25 -15 -29 -47 -85 -49 -42 -2 -55 1 -72 19 -25 27 -26 50 -6 89 18 35 52 60 82 60 31 0 73 -21 73 -37 0 -21 15 -15 29 11 24 44 96 60 139 30z m92 -20 l40 -36 0 36 c0 33 2 36 30 36 22 0 30 -5 30 -17 0 -15 2 -16 10 -3 10 15 7 -27 -9 -125 l-7 -40 -53 50 -53 50 7 -46 7 -46 -32 5 -32 5 6 71 c3 39 5 77 6 84 0 18 6 15 50 -24z m-551 -29 c5 -6 -14 -12 -61 -20 -21 -3 -57 -21 -80 -39 -35 -27 -43 -38 -42 -64 2 -31 2 -31 -23 -15 -16 11 -22 21 -17 32 4 9 15 45 25 81 10 36 18 65 18 66 2 2 176 -38 180 -41z m113 -10 c5 -21 2 -25 -13 -20 -15 5 -19 1 -19 -15 0 -13 4 -19 12 -14 7 4 8 3 4 -5 -4 -6 -2 -28 4 -47 10 -30 10 -38 -1 -45 -26 -17 -36 -9 -49 39 -7 26 -17 52 -23 57 -7 7 -8 6 -3 -2 4 -8 1 -13 -8 -13 -13 0 -33 36 -24 45 7 7 93 44 104 44 7 1 14 -10 16 -24z m-123 -67 c7 -20 7 -36 1 -47 -5 -9 -10 -12 -10 -8 0 5 -6 5 -12 0 -9 -5 -1 -10 22 -13 27 -4 35 -10 35 -25 0 -18 -6 -20 -51 -19 -46 1 -51 -1 -47 -17 3 -10 9 -16 14 -13 5 3 9 0 9 -5 0 -6 -13 -11 -29 -11 -24 0 -34 8 -55 47 -43 76 -42 84 6 115 73 44 101 44 117 -4z m-167 -112 c45 -30 57 -43 54 -60 -2 -11 -8 -20 -12 -19 -5 1 -16 3 -24 5 -8 2 -15 -3 -16 -9 -3 -27 -5 -28 -14 -13 -6 10 -10 11 -10 3 0 -23 -2 -28 -12 -41 -7 -8 -15 -9 -23 -2 -8 7 -19 2 -36 -18 -22 -24 -22 -25 -1 -8 13 11 22 14 22 7 0 -6 -14 -20 -31 -30 -32 -20 -84 -16 -114 9 -39 32 -20 127 32 153 26 14 29 13 46 -9 13 -18 14 -24 5 -26 -7 0 -17 -2 -23 -2 -22 -3 -35 -18 -35 -42 0 -14 4 -22 10 -19 6 3 7 -1 4 -9 -9 -24 29 -20 52 5 10 11 25 18 34 16 13 -3 14 8 11 81 -3 69 -1 83 11 76 7 -5 39 -26 70 -48z m411 -8 c4 -29 11 -54 16 -56 5 -2 7 -13 4 -25 -4 -18 -3 -19 6 -7 9 13 11 13 11 -1 0 -18 -31 -31 -48 -20 -5 3 -15 33 -22 66 -6 33 -14 68 -16 77 -3 10 2 18 13 20 27 7 30 3 36 -54z m-65 22 c12 -20 6 -25 -20 -21 -10 1 -10 -25 -1 -57 3 -14 9 -19 13 -13 3 7 11 -4 17 -24 11 -34 10 -35 -15 -41 -15 -3 -35 -10 -46 -15 -12 -7 -22 -7 -29 0 -7 7 -19 1 -37 -21 -44 -50 -60 -34 -60 56 0 114 4 117 66 55 30 -29 54 -60 54 -68 0 -10 3 -12 10 -5 13 13 -21 106 -37 100 -7 -3 -17 3 -22 12 -8 14 -2 21 32 39 52 28 59 28 75 3z m-222 -91 c8 -14 -16 -80 -27 -74 -5 4 -9 1 -9 -4 0 -6 13 -11 30 -11 19 0 33 -7 40 -19 17 -33 13 -42 -16 -31 -37 14 -54 12 -48 -5 4 -8 10 -12 15 -9 16 9 10 -13 -7 -27 -14 -12 -20 -9 -40 16 -13 16 -35 51 -49 77 -26 47 -26 47 -5 58 17 9 22 7 31 -17 l12 -28 8 30 c5 17 8 37 6 46 -3 12 2 14 25 11 15 -2 31 -8 34 -13z"/> 
<g class="nose">
<path d="M1592 2376 c-22 -23 -43 -54 -47 -67 -12 -38 -48 -79 -124 -144 -39 -33 -71 -65 -71 -72 0 -18 20 -27 33 -14 9 9 7 11 -8 6 -14 -4 -11 1 10 17 16 13 52 44 81 71 28 26 54 47 57 47 4 0 7 -11 7 -24 0 -51 58 -58 142 -15 53 27 48 40 -9 23 -60 -18 -89 -18 -97 1 -13 35 23 133 63 169 21 19 28 46 12 46 -5 0 -27 -20 -49 -44z"/>  
<path d="M1869 2354 c-23 -28 -67 -44 -124 -44 -35 0 -54 -4 -50 -10 8 -14 111 -13 138 1 28 15 67 50 67 61 0 13 -17 9 -31 -8z"/> 
<path d="M1902 2296 c-18 -7 -43 -25 -56 -40 -21 -28 -22 -28 -56 -12 -19 8 -43 21 -52 28 -15 11 -28 7 -84 -20 -80 -40 -77 -53 5 -23 l59 21 38 -25 c55 -37 88 -33 122 15 19 27 37 41 60 46 18 3 35 10 38 15 7 12 -34 9 -74 -5z"/>
</g>
<path d="M577 2502 c-21 -23 -23 -105 -3 -121 19 -16 29 0 20 33 -6 25 10 66 25 66 13 0 54 -73 85 -149 14 -35 25 -65 23 -65 -16 -6 -43 -26 -51 -39 -13 -20 -2 -42 37 -71 21 -15 30 -17 39 -8 9 9 6 17 -12 37 -28 30 -22 40 14 24 48 -22 50 0 6 105 -76 183 -134 242 -183 188z"/> 
<path d="M636 2310 c3 -19 10 -39 15 -44 13 -14 10 2 -7 44 l-14 35 6 -35z"/> 
<path d="M735 2054 c-24 -24 -16 -68 13 -72 31 -5 52 15 52 48 0 40 -36 53 -65 24z m45 -21 c-1 -19 -19 -35 -34 -30 -21 8 -9 37 15 37 10 0 19 -3 19 -7z"/> 
<path d="M1227 1614 c-27 -14 -47 -27 -45 -30 6 -5 118 43 118 51 0 11 -27 3 -73 -21z"/> 
<path d="M1379 1498 c0 -2 -2 -30 -5 -63 -3 -33 -9 -73 -13 -90 -13 -51 -21 -573 -9 -551 4 7 9 134 12 282 3 163 10 300 19 347 7 42 10 77 5 77 -4 0 -8 -1 -9 -2z"/> 
<path d="M1840 1027 c0 -13 54 -77 65 -77 15 0 124 -95 142 -123 4 -7 19 -21 32 -32 l25 -20 -21 30 c-27 38 -124 131 -183 176 -25 18 -48 38 -52 44 -4 5 -8 6 -8 2z"/> 
<path d="M2599 543 c-3 -7 -7 -25 -9 -45 -2 -22 -2 -22 -11 2 l-8 25 2 -25 c3 -37 50 -40 73 -6 13 21 14 29 5 40 -10 12 -48 18 -52 9z"/> 
<path d="M2436 518 c5 -8 2 -9 -9 -5 -9 3 -19 1 -23 -5 -4 -7 -3 -8 4 -4 14 9 15 -4 2 -24 -8 -12 -10 -12 -10 -1 0 8 -3 12 -6 8 -14 -13 8 -47 31 -47 39 0 64 71 29 84 -23 9 -26 8 -18 -6z"/> 
<path d="M2862 520 c0 -19 2 -27 5 -17 2 9 2 25 0 35 -3 9 -5 1 -5 -18z"/> 
<path d="M2128 429 c-18 -10 -25 -49 -10 -49 12 0 42 34 42 48 0 14 -9 15 -32 1z"/> 
<path d="M1575 2665 c14 -114 14 -135 -1 -135 -8 0 -12 -4 -9 -10 3 -5 13 -10 22 -10 13 0 15 10 9 68 -4 38 -11 82 -16 98 -9 26 -9 25 -5 -11z"/> 
<path class="eye-right" stroke-width="12" fill="black" d="M1355 2681 c-51 -13 -116 -51 -167 -99 -53 -50 -67 -70 -74 -108 l-5 -25 88 6 c94 7 217 22 246 31 9 3 17 10 17 16 0 5 -6 8 -14 5 -7 -3 -35 -9 -62 -13 l-48 -7 27 32 c30 36 32 44 16 72 -9 18 -8 19 18 13 61 -15 90 -32 103 -63 13 -33 33 -37 38 -9 2 9 -11 42 -29 73 -42 75 -81 94 -154 76z m106 -42 c21 -18 21 -20 4 -13 -11 4 -51 9 -89 12 -79 5 -71 22 10 22 38 0 58 -5 75 -21z m-111 -40 c0 -26 -40 -100 -51 -93 -5 2 -4 15 0 27 5 12 4 33 0 45 -12 30 -4 42 27 42 18 0 24 -5 24 -21z m-80 -40 c-12 -42 -19 -47 -34 -26 -7 9 -16 17 -20 17 -13 0 -5 -38 11 -51 14 -12 11 -15 -28 -20 -24 -4 -46 -5 -48 -3 -6 6 57 76 86 95 38 26 43 24 33 -12z"/>           
  
<path class="mouth" d="M2070 2192 c0 -6 8 -13 18 -15 13 -4 12 -5 -5 -6 -34 -2 -37 -20 -9 -42 20 -15 26 -29 26 -57 0 -64 -6 -67 -106 -48 -175 32 -277 19 -419 -51 -84 -42 -88 -43 -65 -18 44 49 136 101 236 134 114 38 128 37 237 -19 82 -42 92 -46 82 -30 -4 6 -43 29 -87 51 -94 47 -132 50 -228 19 -99 -33 -179 -80 -236 -137 -31 -32 -61 -53 -74 -53 -18 0 -57 21 -90 48 -3 2 3 8 13 13 32 18 7 29 -31 14 -37 -15 -37 -15 -14 4 12 11 28 21 35 24 6 2 9 8 5 12 -14 15 -70 -18 -86 -52 -20 -42 -7 -58 31 -38 26 13 30 12 74 -21 34 -26 53 -34 72 -31 16 4 46 -4 80 -20 97 -48 171 -41 359 29 44 17 53 24 49 40 -4 12 0 21 11 24 9 3 24 9 32 13 8 4 37 2 65 -5 64 -17 62 -17 74 5 25 46 29 100 11 136 l-18 35 39 0 c49 0 54 25 7 33 -18 3 -45 9 -60 12 -17 5 -28 3 -28 -3z m-148 -188 c47 -8 39 -24 -11 -24 -28 0 -42 -6 -52 -21 -10 -15 -35 -24 -94 -35 -43 -9 -87 -20 -96 -25 -12 -6 -21 -4 -29 6 -8 9 -22 12 -41 8 -15 -3 -41 -2 -56 2 l-28 7 40 21 c88 45 168 67 250 67 44 0 97 -3 117 -6z"/>       
<path d="M1280 1902 c0 -15 96 -143 116 -155 8 -5 11 -14 8 -20 -4 -7 -4 -9 1 -5 4 4 37 -18 74 -48 91 -77 104 -87 132 -103 35 -19 17 -3 -97 87 -89 70 -186 174 -222 237 -6 11 -12 14 -12 7z"/> 
<path d="M1935 1838 c-68 -56 -170 -103 -220 -102 -22 1 -73 12 -112 26 -54 18 -73 21 -73 11 0 -30 168 -89 223 -78 85 19 202 97 233 156 20 39 9 36 -51 -13z"/>     
<path d="M1705 1654 l-40 -14 48 5 c55 5 101 25 57 24 -14 0 -43 -7 -65 -15z"/>   
<path d="M1638 1538 c12 -6 22 -15 22 -20 0 -4 5 -8 10 -8 7 0 7 6 0 20 -6 11 -20 20 -33 19 l-22 0 23 -11z"/>       
<path d="M1064 1028 c-9 -18 -30 -52 -46 -76 -34 -49 -108 -194 -108 -211 0 -6 5 -11 10 -11 6 0 10 6 10 13 0 7 9 29 20 50 11 20 21 40 22 44 4 16 34 67 64 106 30 41 58 106 50 115 -3 2 -12 -11 -22 -30z"/> 
<path d="M329 360 c-79 -95 -139 -183 -139 -205 0 -5 17 15 38 46 20 31 48 69 62 83 14 15 37 40 51 55 24 27 84 121 76 121 -2 0 -42 -45 -88 -100z"/> 
<path d="M450 165 c0 -3 19 -34 43 -69 23 -35 47 -71 52 -81 6 -10 17 -16 24 -14 8 3 -8 33 -46 87 -51 72 -73 95 -73 77z"/> 
<path d="M176 114 c-10 -37 -2 -39 11 -4 6 17 8 30 3 30 -4 0 -11 -12 -14 -26z"/> 
<path d="M2000 32 c-19 -2 -39 -8 -44 -13 -6 -5 139 -9 377 -9 213 0 387 4 387 8 0 5 -15 8 -32 7 -18 -2 -37 0 -42 3 -10 6 -587 9 -646 4z"/> 
<path d="M906 18 c2 -4 45 -7 96 -7 50 0 89 1 86 4 -7 7 -186 10 -182 3z"/> 
<path d="M1162 19 c-9 -4 52 -7 137 -7 84 -1 150 2 147 5 -8 9 -262 10 -284 2z"/> 
</g> 
</svg>